<svg width="300" height="40" viewBox="0 0 300 40" fill="none" xmlns="http://www.w3.org/2000/svg">
<g clip-path="url(#clip0)">
<path d="M221.348 18.7422C220.918 11.6552 215.012 6 207.782 6C200.552 6 194.646 11.6552 194.217 18.7422C194.217 19.0285 194.253 19.3149 194.288 19.6012C194.575 21.9635 195.47 24.1469 196.83 25.9723C199.299 29.3368 203.272 31.5202 207.782 31.5202C201.483 31.5202 196.329 26.6166 195.899 20.4602C195.863 20.1739 195.863 19.8875 195.863 19.6012C195.863 19.3149 195.863 19.0285 195.899 18.7422C196.329 12.5858 201.483 7.68225 207.782 7.68225C212.292 7.68225 216.265 9.86561 218.735 13.2301C220.095 15.0555 220.99 17.2389 221.276 19.6012C221.312 19.8875 221.348 20.1739 221.348 20.4244C221.348 20.1381 221.383 19.8518 221.383 19.5654C221.383 19.3149 221.383 19.0285 221.348 18.7422" fill="#C1C7D0"/>
<path d="M194.217 20.4601C194.647 27.547 200.553 33.2023 207.783 33.2023C215.013 33.2023 220.919 27.547 221.348 20.4601C221.348 20.1738 221.312 19.8874 221.277 19.6011C220.99 17.2388 220.096 15.0554 218.735 13.23C216.266 9.86548 212.293 7.68213 207.783 7.68213C214.082 7.68213 219.236 12.5857 219.666 18.7421C219.702 19.0284 219.702 19.3147 219.702 19.6011C219.702 19.8874 219.702 20.1738 219.666 20.4601C219.236 26.6522 214.082 31.52 207.783 31.52C203.273 31.52 199.3 29.3367 196.83 25.9722C195.47 24.1467 194.575 21.9634 194.289 19.6011C194.253 19.3147 194.217 19.0284 194.217 18.7779C194.217 19.0642 194.182 19.3505 194.182 19.6369C194.182 19.8874 194.182 20.1738 194.217 20.4601Z" fill="#C1C7D0"/>
<path d="M206.101 8.61279V12.371H208.713C209.358 12.371 209.859 11.8699 209.859 11.2257C209.859 10.9035 209.716 10.6172 209.501 10.4024C209.644 10.2235 209.751 9.9729 209.787 9.72235C209.787 9.11388 209.286 8.61279 208.678 8.61279H206.101ZM206.96 9.40023H208.534C208.713 9.40023 208.857 9.54339 208.857 9.72235C208.857 9.90132 208.713 10.0445 208.534 10.0445H206.96V9.40023ZM206.96 10.8319H208.57C208.785 10.8319 208.928 10.9751 208.928 11.1898C208.928 11.4046 208.785 11.5478 208.57 11.5478H206.96V10.8319Z" fill="#C1C7D0"/>
<path d="M207.353 13.0864L205.492 16.8447H206.459L206.745 16.2004H208.857L209.143 16.8447H210.109L208.212 13.0864H207.353ZM207.783 14.0529L208.427 15.413H207.139L207.783 14.0529Z" fill="#C1C7D0"/>
<path d="M209.071 17.668H210.145L208.248 20.1019V21.4262H207.353V20.1019L205.456 17.668H206.53L207.818 19.386L209.071 17.668Z" fill="#C1C7D0"/>
<path d="M215.229 17.668V21.4262H216.123V19.9945H216.803L217.877 21.4262H218.951L217.841 19.9587C218.307 19.8155 218.665 19.386 218.665 18.8491C218.665 18.2049 218.164 17.668 217.519 17.668H215.229ZM216.159 18.4554H217.448C217.627 18.4554 217.806 18.6344 217.806 18.8133C217.806 18.9923 217.662 19.1713 217.448 19.1713H216.159V18.4554Z" fill="#C1C7D0"/>
<path d="M196.938 17.668V21.4262H199.55C200.195 21.4262 200.696 20.9251 200.696 20.2808C200.696 19.9587 200.553 19.6723 200.338 19.4576C200.481 19.2786 200.588 19.0281 200.624 18.7775C200.624 18.1691 200.123 17.668 199.515 17.668H196.938ZM197.797 18.4554H199.371C199.55 18.4554 199.694 18.5986 199.694 18.7775C199.694 18.9565 199.55 19.0997 199.371 19.0997H197.797V18.4554ZM197.797 19.8871H199.407C199.622 19.8871 199.765 20.0303 199.765 20.245C199.765 20.4598 199.622 20.603 199.407 20.603H197.797V19.8871Z" fill="#C1C7D0"/>
<path d="M203.094 17.668L201.232 21.4262H202.199L202.485 20.782H204.597L204.883 21.4262H205.85L203.953 17.668H203.094ZM203.523 18.6344L204.167 19.9945H202.879L203.523 18.6344Z" fill="#C1C7D0"/>
<path d="M214.046 17.668V18.4758H211.54V19.108H213.974V19.9159H211.54V20.6184H214.046V21.4262H210.646V17.668H214.046Z" fill="#C1C7D0"/>
<path d="M206.064 26.9028V30.6611H206.959V29.2294H207.639L208.713 30.6611H209.787L208.677 29.1936C209.143 29.0504 209.501 28.6209 209.501 28.084C209.501 27.4397 208.999 26.9028 208.355 26.9028H206.064ZM206.995 27.6903H208.284C208.463 27.6903 208.642 27.8692 208.642 28.0482C208.642 28.2272 208.498 28.4061 208.284 28.4061H206.995V27.6903Z" fill="#C1C7D0"/>
<path d="M209.501 22.2412V23.0491H206.995V23.6813H209.429V24.4891H206.995V25.1916H209.501V25.9994H206.101V22.2412H209.501Z" fill="#C1C7D0"/>
<path d="M0 8.55029H22.6167V31.167H0V8.55029ZM20.2645 28.8148V10.9024H2.35213V28.8148H20.2645ZM4.38763 14.3854V21.2156C4.38763 24.3367 6.1065 26.1913 9.00143 26.1913C11.9868 26.1913 13.7057 24.3367 13.7057 21.2156V14.3854H11.3536V21.2156C11.3536 22.9797 10.5846 23.9749 9.04666 23.9749C7.41826 23.9749 6.69453 22.9345 6.69453 21.2156V14.3854H4.38763ZM16.7363 15.7876C17.5505 15.7876 18.1838 15.1996 18.1838 14.3854C18.1838 13.526 17.5958 12.9379 16.7363 12.9379C15.9221 12.9379 15.2889 13.526 15.2889 14.3854C15.2889 15.1996 15.9221 15.7876 16.7363 15.7876ZM15.5603 16.8732V26.0556H17.9124V16.8732H15.5603ZM29.5826 22.3012C32.1157 22.3012 33.7893 20.8085 33.7893 18.3207C33.7893 15.9233 32.1609 14.3854 29.5826 14.3854H25.1497V26.1008H27.5019V22.3465H29.5826V22.3012ZM29.3112 20.4467H27.4566V16.2852H29.3112C30.6682 16.2852 31.3919 17.0542 31.3919 18.3207C31.3919 19.6777 30.6682 20.4467 29.3112 20.4467ZM34.5583 21.487C34.5583 24.2463 36.3224 26.1913 38.8102 26.1913C40.3029 26.1913 41.2528 25.6485 41.7956 24.7891V26.1008H44.1477V16.8732H41.7956V18.3207C41.2076 17.3708 40.2576 16.7828 38.8102 16.7828C36.2771 16.7828 34.5583 18.773 34.5583 21.487ZM41.7956 21.487C41.7956 23.0702 40.8004 24.1106 39.353 24.1106C37.7698 24.1106 36.9556 22.9797 36.9556 21.487C36.9556 19.8586 37.8603 18.8183 39.353 18.8183C40.8457 18.8183 41.7956 19.9039 41.7956 21.487ZM50.028 24.0653C49.1234 24.0653 48.8972 23.6582 48.8972 22.844V18.8635H50.9327V16.8732H48.8972V14.3402H46.5451V16.8732H45.4595V18.8635H46.5451V22.844C46.5451 25.0152 47.495 26.0556 49.7566 26.0556H50.9779V24.0653H50.028ZM54.5966 18.185V13.8426H52.2445V26.1008H54.5966V21.2156C54.5966 19.6325 55.4108 18.6826 56.813 18.6826C58.17 18.6826 58.8938 19.5872 58.8938 20.9895V26.0556H61.2459V20.7633C61.2459 18.3659 59.527 16.7828 57.3558 16.7828C55.9988 16.7828 55.1394 17.2803 54.5966 18.185ZM61.065 13.7974V14.1592H61.8339V16.5114H62.2863V14.1592H63.01V13.7974H61.065ZM65.9502 13.7974L65.0003 15.9686L64.0956 13.7974H63.5528V16.5114H63.9599V14.4306L64.8646 16.5114H65.1812L66.0406 14.4306V16.5114H66.4477V13.7974H65.9502Z" fill="#C1C7D0"/>
<path fill-rule="evenodd" clip-rule="evenodd" d="M163.912 12.4882H164.077C164.262 12.4882 164.427 12.4264 164.427 12.2617C164.427 12.1175 164.324 12.0351 164.097 12.0145C164.015 12.0145 163.933 12.0145 163.912 12.0351V12.4882ZM163.891 13.3533H163.541L163.562 11.8085C163.706 11.7879 163.891 11.7673 164.139 11.7673C164.427 11.7673 164.551 11.8085 164.654 11.8909C164.736 11.9527 164.818 12.0763 164.798 12.2205C164.798 12.4058 164.654 12.5294 164.489 12.5912V12.6118C164.633 12.653 164.715 12.7766 164.757 12.9826C164.798 13.2091 164.839 13.3121 164.859 13.3533H164.489C164.448 13.2915 164.406 13.1679 164.365 12.9826C164.345 12.8178 164.242 12.7354 164.056 12.7354H163.891V13.3533ZM162.965 12.55C162.965 13.2297 163.459 13.7858 164.139 13.7858C164.798 13.8064 165.292 13.2503 165.292 12.5706C165.292 11.8909 164.798 11.3142 164.139 11.3142C163.48 11.3142 162.965 11.8703 162.965 12.55ZM165.683 12.5706C165.683 13.4357 164.983 14.1154 164.118 14.1154C163.253 14.1154 162.573 13.4151 162.573 12.55C162.573 11.6849 163.274 11.0052 164.159 11.0258C165.024 11.0052 165.683 11.7055 165.683 12.5706Z" fill="#C1C7D0"/>
<path fill-rule="evenodd" clip-rule="evenodd" d="M102.142 26.2677C99.0934 27.4829 94.8916 27.3388 92.3376 24.9907C89.66 22.5191 89.1244 18.5233 90.0307 14.96C90.5456 12.9209 92.008 10.9024 93.9235 9.89314C96.3952 8.57494 99.8349 8.57494 102.595 9.97553C103.686 10.5316 104.758 11.7469 105.355 12.9209C105.684 13.58 106.055 14.754 105.417 15.2689C104.284 16.1752 102.121 15.9486 101.462 15.3513C100.226 14.2391 99.0934 12.406 97.1779 13.2916C95.7155 13.9713 95.0358 15.7839 95.0152 17.4522C94.9946 19.3677 95.0152 21.4686 96.8277 22.4779C97.7134 22.9722 99.217 22.9516 99.9996 22.1895C100.7 21.4892 101.277 20.2534 102.162 20.1298C102.533 20.0886 105.952 19.6767 105.89 21.0155C105.767 23.2606 104.057 25.3409 102.142 26.2677Z" fill="#C1C7D0"/>
<path fill-rule="evenodd" clip-rule="evenodd" d="M118.661 26.2054C117.734 26.4938 116.704 26.5762 115.901 26.0818C114.809 25.4433 115.056 23.981 115.098 22.8481C115.139 20.9738 115.654 18.6052 113.862 17.6165C113.285 17.3693 112.544 17.6371 112.276 17.8843C111.987 18.1314 111.658 18.7081 111.534 19.2849C111.246 21.4269 111.74 24.5783 110.855 25.7729C110.34 26.4732 108.301 26.432 107.662 26.0613C106.488 25.4021 106.694 23.569 106.673 22.3332C106.632 19.1407 106.529 14.321 106.879 10.3252C107.003 8.94519 109.99 8.34788 111.122 9.99563C111.37 10.3458 111.37 11.7876 111.39 12.1995C111.493 14.0326 112.255 14.1356 112.605 14.0532C114.541 13.3735 117.157 12.8998 118.517 14.8153C120.247 17.2046 119.65 24.2487 119.567 24.7225C119.423 25.6287 119.011 26.1024 118.661 26.2054Z" fill="#C1C7D0"/>
<path fill-rule="evenodd" clip-rule="evenodd" d="M142.739 17.7193C142.142 17.0808 141.05 17.0808 140.494 17.637C139.958 18.1519 139.711 18.811 139.691 19.5525C139.67 20.4999 139.938 21.3032 140.576 21.7769C141.071 22.1477 141.771 22.2095 142.327 21.9005C143.048 21.468 143.439 20.5617 143.48 19.7378C143.522 18.9758 143.233 18.2755 142.739 17.7193ZM147.847 26.7202C147.682 28.059 146.776 29.5214 145.458 29.9539C142.821 30.819 139.155 30.9632 136.931 29.1918C136.725 29.0271 136.601 28.9241 136.457 28.7387C136.127 28.3062 136.127 27.7089 136.457 27.4411C137.281 26.7614 138.99 26.6172 140.453 27.2557C141.73 27.8118 142.78 27.4617 143.151 26.6996C143.439 26.1229 143.11 25.3196 141.812 25.505C140.35 25.7316 138.084 26.1229 136.292 23.8572C135.448 22.8068 135.077 21.5504 134.994 20.2116C134.891 18.0695 135.345 16.154 136.828 14.6916C138.619 12.9203 141.565 13.5588 143.583 14.2591C144.757 13.8883 147.6 13.0438 148.053 15.1653C148.073 15.3507 148.321 23.054 147.847 26.7202Z" fill="#C1C7D0"/>
<path fill-rule="evenodd" clip-rule="evenodd" d="M156.682 17.7193C156.085 17.0808 154.993 17.0808 154.437 17.637C153.902 18.1519 153.654 18.811 153.634 19.5525C153.613 20.4999 153.881 21.3032 154.519 21.7769C155.014 22.1477 155.714 22.2095 156.27 21.9005C156.991 21.468 157.382 20.5617 157.424 19.7378C157.465 18.9758 157.176 18.2755 156.682 17.7193ZM161.79 26.7202C161.625 28.059 160.719 29.5214 159.422 29.9539C156.785 30.819 153.119 30.9632 150.894 29.1918C150.688 29.0271 150.565 28.9241 150.421 28.7387C150.091 28.3062 150.091 27.7089 150.421 27.4411C151.245 26.7614 152.954 26.6172 154.416 27.2557C155.693 27.8118 156.744 27.4617 157.115 26.6996C157.403 26.1229 157.073 25.3196 155.776 25.505C154.313 25.7316 152.048 26.1229 150.256 23.8572C149.411 22.8068 149.041 21.5504 148.958 20.2116C148.855 18.0695 149.308 16.154 150.791 14.6916C152.583 12.9203 155.529 13.5588 157.547 14.2591C158.721 13.8883 161.564 13.0438 162.017 15.1653C162.017 15.3507 162.264 23.054 161.79 26.7202Z" fill="#C1C7D0"/>
<path fill-rule="evenodd" clip-rule="evenodd" d="M126.24 17.2255C126.055 17.5138 126.096 18.1317 126.508 18.3789C127.229 18.7908 128.156 18.6672 128.65 18.1729C128.939 17.8846 128.753 17.4108 128.609 17.1843C128.197 16.484 126.714 16.4634 126.24 17.2255ZM126.611 21.2831C126.034 21.4478 125.746 22.1687 126.055 22.7042C126.508 23.4663 127.497 23.7135 128.341 23.4045C129.701 22.9308 130.875 21.7362 132.687 22.6013C133.264 22.869 133.388 23.6723 133.079 24.1254C131.266 26.8442 127.6 26.9678 124.716 26.2469C122.718 25.732 121.071 23.6723 120.72 21.5714C120.288 18.935 120.988 16.381 123.13 14.795C125.973 12.6735 130.71 13.0237 132.996 16.0926C133.841 17.2255 134.623 19.8825 133.841 20.7475C132.296 22.4777 129.103 20.5828 126.611 21.2831Z" fill="#C1C7D0"/>
<path d="M270.571 16.3317C270.284 16.499 269.985 16.6783 269.639 16.8694C264.668 19.5579 263.031 21.1949 263.031 21.1949C279.592 15.7343 291.063 18.3272 291.063 18.3272V18.3152C290.848 18.2555 283.117 15.7343 270.571 16.3317Z" fill="#C1C7D0"/>
<path d="M270.428 12.1614C268.576 11.0382 276.355 9.44902 291.051 18.315C273.774 5.41036 263.892 6.4021 266.079 8.02712C268.253 9.65215 271.288 10.9665 264.561 13.7744C258.073 16.4749 255.851 18.315 255.851 18.315C260.69 17.2396 265.625 16.5704 270.571 16.3315C274.455 13.9776 272.149 13.2009 270.428 12.1614Z" fill="#C1C7D0"/>
<path d="M255.086 28.9375C254.656 28.1489 253.747 27.7905 253.03 27.4081C252.158 26.954 251.31 26.6314 251.31 25.6875C251.31 25.0662 251.8 24.6718 252.385 24.6718C253.066 24.6718 253.52 25.0662 253.819 25.2693L254.01 26.3566H254.715V24.4807C253.903 24.3014 253.078 24.2058 252.254 24.2178C250.868 24.2178 249.936 25.2095 249.936 26.3686C249.936 27.8024 251.107 28.2804 251.848 28.6866C252.027 28.7822 252.182 28.8658 252.337 28.9375C252.875 29.2004 253.269 29.4394 253.485 29.7739C253.485 29.7859 253.485 29.7859 253.485 29.7859C253.485 29.7859 253.664 30.1802 253.652 30.4072C253.652 31.1361 253.066 31.6977 252.29 31.6977C251.632 31.6977 251.262 31.3153 251.011 31.16L250.724 30.0727H250.712L249.936 30.1683H249.924L250.007 31.8889C250.366 31.9845 251.023 32.1876 252.457 32.1876C253.831 32.1876 255.301 31.2436 255.301 29.9054C255.301 29.8098 255.313 29.7381 255.301 29.6067C255.265 29.3796 255.193 29.1526 255.086 28.9375Z" fill="#C1C7D0"/>
<path d="M259.028 31.5303C258.036 31.3869 257.714 30.5266 257.654 29.4034C257.654 29.2601 257.642 29.1047 257.642 28.9494H261.274C261.274 27.2407 260.259 26.4282 258.586 26.4282C256.913 26.4282 255.742 27.7426 255.742 29.3318C255.742 29.4154 255.742 29.4871 255.754 29.5707C255.862 31.1838 257.092 32.2711 258.61 32.2711C260.199 32.2711 261.035 31.6618 261.37 31.3989L261.107 30.9687C260.88 31.1002 259.912 31.6618 259.028 31.5303ZM258.61 26.8584C259.291 26.8584 259.458 27.7306 259.494 28.5192H257.69C257.702 27.647 258 26.8584 258.61 26.8584Z" fill="#C1C7D0"/>
<path d="M266.855 28.8779V27.8503C266.855 27.0617 266.246 26.3567 265.051 26.3687C264.083 26.3567 263.139 26.5479 262.243 26.9064L262.291 28.1371H263.211L263.354 27.0976C263.665 27.0617 263.748 26.99 264.394 27.0976C264.967 27.1932 265.087 27.5755 265.087 28.1371V28.9377L263.808 29.0691C262.733 29.1527 261.801 29.7024 261.801 30.7061C261.801 31.6859 262.542 32.1399 263.366 32.1399C263.999 32.1519 264.609 31.9368 265.087 31.5305L265.182 32.1399L267.68 32.0085V31.7217L266.855 31.5186V28.8779ZM265.099 31.1243C264.86 31.3155 264.573 31.423 264.274 31.4588C263.725 31.4588 263.426 31.1482 263.426 30.5746C263.426 29.9772 263.88 29.5829 264.561 29.4993L265.099 29.4395V31.1243Z" fill="#C1C7D0"/>
<path d="M277.131 24.612V24.3491H274.61V24.612L275.494 24.8032L273.881 29.8336L273.534 28.7582L272.256 24.8151L272.985 24.6239V24.3611H269.878V24.612L270.511 24.8032L271.3 27.181L270.798 28.7104L270.368 30.0367L270.009 28.794L268.767 24.8151L269.412 24.6239V24.3611H266.27V24.6239L266.915 24.8151V24.8271L268.289 28.8418L269.364 32.0919H270.201L271.348 28.806L271.611 28.0532L271.85 28.7821L272.925 32.0799H273.821L276.426 24.8032L277.131 24.612Z" fill="#C1C7D0"/>
<path d="M282.281 28.9374C282.102 27.2288 280.572 26.4043 279.079 26.4043C277.597 26.4043 276.163 27.181 275.9 28.7701C275.9 28.7701 275.876 28.8777 275.876 28.9255C275.864 29.033 275.852 29.1405 275.864 29.26C275.864 31.124 277.489 32.1755 279.09 32.1755C280.68 32.1755 282.305 31.1121 282.305 29.26C282.293 29.1525 282.293 29.045 282.281 28.9374ZM279.055 31.7334C278.158 31.7334 277.716 30.5624 277.716 29.26C277.716 29.1525 277.716 29.033 277.728 28.9255C277.728 28.8896 277.728 28.8538 277.74 28.8179C277.836 27.7187 278.278 26.8344 279.067 26.8344C279.855 26.8344 280.309 27.7425 280.393 28.8896C280.393 28.8896 280.393 29.1525 280.393 29.272C280.405 30.5744 279.963 31.7334 279.055 31.7334Z" fill="#C1C7D0"/>
<path d="M286.511 26.3926C285.782 26.3926 285.196 27.4202 284.993 27.8145L284.85 26.3926L282.46 26.536V26.7988L283.308 27.0259L283.296 29.0093L285.065 29.1049V28.2685C285.363 27.9579 285.782 27.7786 286.212 27.7786C286.487 27.7667 286.761 27.8503 286.965 28.0296L287.514 26.7988C287.395 26.6435 287.096 26.3926 286.511 26.3926Z" fill="#C1C7D0"/>
<path d="M283.309 31.5902L282.448 31.7933V32.0681H286.332V31.7575L285.077 31.5424V29.1049L283.309 29.0093V31.5902Z" fill="#C1C7D0"/>
<path d="M290.155 29.4511V23.8711L287.538 24.0384V24.3012L288.386 24.5044V29.3078V31.59L287.538 31.7931V32.0679H290.991V31.805L290.155 31.59V29.4511Z" fill="#C1C7D0"/>
<path d="M297.264 30.1444V23.8354L294.325 23.9908V24.2895L295.496 24.5165V26.8346C294.922 26.512 294.277 26.3447 293.62 26.3447C292.21 26.3447 291.314 27.3723 291.17 28.9017C291.158 29.0451 291.146 29.1885 291.158 29.3319V29.4872C291.182 29.4872 291.206 29.4872 291.218 29.4991C291.194 29.4991 291.17 29.4991 291.146 29.4872C291.206 31.2078 292.174 32.1876 293.644 32.1876C294.313 32.1876 294.97 31.9845 295.508 31.5902L295.568 32.1876L298.136 32.0801V31.8411L297.264 31.6141V30.1444ZM294.444 31.4348C293.536 31.4348 293.106 30.7896 293.034 29.7023C293.034 29.5947 293.022 29.4633 293.022 29.3438C293.022 29.2243 293.034 29.0809 293.034 28.9375C293.13 27.898 293.536 27.1094 294.349 27.0974C294.743 27.0855 295.137 27.1811 295.484 27.3842V29.9532L295.496 31.1003C295.269 31.2317 295.006 31.4348 294.444 31.4348Z" fill="#C1C7D0"/>
<path d="M299.284 31.0166C298.89 31.0166 298.579 31.3392 298.579 31.7216C298.579 32.1159 298.902 32.4385 299.296 32.4504C299.69 32.4504 300.001 32.1278 300.001 31.7455V31.7335C299.989 31.3273 299.666 31.0166 299.284 31.0166ZM299.929 31.7216C299.929 31.7455 299.929 31.7574 299.929 31.7813C299.917 32.1398 299.607 32.4146 299.26 32.4027C298.902 32.3907 298.627 32.08 298.639 31.7335C298.639 31.7216 298.639 31.7216 298.639 31.7096C298.639 31.3512 298.926 31.0644 299.284 31.0644C299.643 31.0644 299.929 31.3631 299.929 31.7216Z" fill="#C1C7D0"/>
<path d="M299.606 31.5659C299.606 31.5062 299.583 31.4584 299.547 31.4225C299.487 31.3628 299.403 31.3389 299.332 31.3389H298.997V32.0797H299.105V31.8168H299.308L299.511 32.0797H299.654L299.415 31.781C299.535 31.769 299.606 31.6734 299.606 31.5659ZM299.093 31.6854V31.4345H299.308C299.415 31.4345 299.487 31.4823 299.487 31.5659C299.487 31.6495 299.427 31.6973 299.308 31.6973L299.093 31.6854Z" fill="#C1C7D0"/>
</g>
<defs>
<clipPath id="clip0">
<rect width="300" height="40" fill="white"/>
</clipPath>
</defs>
</svg>
