<?xml version="1.0" standalone="no"?>
<svg xmlns:xlink="http://www.w3.org/1999/xlink" id="wave" style="transform:rotate(0deg); transition: 0.3s" viewBox="0 0 1440 250" version="1.1" xmlns="http://www.w3.org/2000/svg"><defs><linearGradient id="sw-gradient-0" x1="0" x2="0" y1="1" y2="0"><stop stop-color="rgba(243, 106, 62, 1)" offset="0%"/><stop stop-color="rgba(255, 179, 11, 1)" offset="100%"/></linearGradient></defs><path style="transform:translate(0, 0px); opacity:1" fill="url(#sw-gradient-0)" d="M0,225L60,225C120,225,240,225,360,216.7C480,208,600,192,720,175C840,158,960,142,1080,133.3C1200,125,1320,125,1440,116.7C1560,108,1680,92,1800,100C1920,108,2040,142,2160,150C2280,158,2400,142,2520,145.8C2640,150,2760,175,2880,179.2C3000,183,3120,167,3240,158.3C3360,150,3480,150,3600,154.2C3720,158,3840,167,3960,175C4080,183,4200,192,4320,175C4440,158,4560,117,4680,120.8C4800,125,4920,175,5040,200C5160,225,5280,225,5400,225C5520,225,5640,225,5760,200C5880,175,6000,125,6120,116.7C6240,108,6360,142,6480,129.2C6600,117,6720,58,6840,29.2C6960,0,7080,0,7200,4.2C7320,8,7440,17,7560,33.3C7680,50,7800,75,7920,79.2C8040,83,8160,67,8280,50C8400,33,8520,17,8580,8.3L8640,0L8640,250L8580,250C8520,250,8400,250,8280,250C8160,250,8040,250,7920,250C7800,250,7680,250,7560,250C7440,250,7320,250,7200,250C7080,250,6960,250,6840,250C6720,250,6600,250,6480,250C6360,250,6240,250,6120,250C6000,250,5880,250,5760,250C5640,250,5520,250,5400,250C5280,250,5160,250,5040,250C4920,250,4800,250,4680,250C4560,250,4440,250,4320,250C4200,250,4080,250,3960,250C3840,250,3720,250,3600,250C3480,250,3360,250,3240,250C3120,250,3000,250,2880,250C2760,250,2640,250,2520,250C2400,250,2280,250,2160,250C2040,250,1920,250,1800,250C1680,250,1560,250,1440,250C1320,250,1200,250,1080,250C960,250,840,250,720,250C600,250,480,250,360,250C240,250,120,250,60,250L0,250Z"/><defs><linearGradient id="sw-gradient-1" x1="0" x2="0" y1="1" y2="0"><stop stop-color="rgba(243, 106, 62, 1)" offset="0%"/><stop stop-color="rgba(255, 179, 11, 1)" offset="100%"/></linearGradient></defs><path style="transform:translate(0, 50px); opacity:0.9" fill="url(#sw-gradient-1)" d="M0,100L60,95.8C120,92,240,83,360,66.7C480,50,600,25,720,29.2C840,33,960,67,1080,79.2C1200,92,1320,83,1440,79.2C1560,75,1680,75,1800,95.8C1920,117,2040,158,2160,158.3C2280,158,2400,117,2520,112.5C2640,108,2760,142,2880,158.3C3000,175,3120,175,3240,158.3C3360,142,3480,108,3600,91.7C3720,75,3840,75,3960,95.8C4080,117,4200,158,4320,183.3C4440,208,4560,217,4680,212.5C4800,208,4920,192,5040,154.2C5160,117,5280,58,5400,58.3C5520,58,5640,117,5760,150C5880,183,6000,192,6120,166.7C6240,142,6360,83,6480,54.2C6600,25,6720,25,6840,50C6960,75,7080,125,7200,120.8C7320,117,7440,58,7560,54.2C7680,50,7800,100,7920,125C8040,150,8160,150,8280,158.3C8400,167,8520,183,8580,191.7L8640,200L8640,250L8580,250C8520,250,8400,250,8280,250C8160,250,8040,250,7920,250C7800,250,7680,250,7560,250C7440,250,7320,250,7200,250C7080,250,6960,250,6840,250C6720,250,6600,250,6480,250C6360,250,6240,250,6120,250C6000,250,5880,250,5760,250C5640,250,5520,250,5400,250C5280,250,5160,250,5040,250C4920,250,4800,250,4680,250C4560,250,4440,250,4320,250C4200,250,4080,250,3960,250C3840,250,3720,250,3600,250C3480,250,3360,250,3240,250C3120,250,3000,250,2880,250C2760,250,2640,250,2520,250C2400,250,2280,250,2160,250C2040,250,1920,250,1800,250C1680,250,1560,250,1440,250C1320,250,1200,250,1080,250C960,250,840,250,720,250C600,250,480,250,360,250C240,250,120,250,60,250L0,250Z"/></svg>